<svg width="311" height="376" viewBox="0 0 311 376" fill="none" xmlns="http://www.w3.org/2000/svg">
<path d="M176.373 208.662C113.633 266.494 86.3385 306.929 54.2842 296.737C22.0928 261.813 84.4683 193.211 147.208 135.379C209.948 77.5467 249.295 52.3849 281.486 87.3082C291.403 134.009 245.779 144.686 176.373 208.662Z" fill="#FF7A00"/>
<path d="M94.9362 187.489L93.9013 208.355L88.3971 194.854L94.9362 187.489Z" fill="black"/>
<path d="M139.994 243.79L132.832 239.914L147.638 236.252L139.994 243.79Z" fill="black"/>
<path d="M182.806 104.2L182.728 111.448L179.212 107.254L182.806 104.2Z" fill="black"/>
<path d="M36.2043 319.394L38.7195 315.861C103.9 224.322 188.069 147.927 285.477 91.8952V91.8952" stroke="black" stroke-width="3"/>
</svg>
