<svg width="269" height="329" viewBox="0 0 269 329" fill="none" xmlns="http://www.w3.org/2000/svg">
<path d="M143.375 16.5037L258.875 124.418C261.506 126.877 263 130.316 263 133.917V310C263 317.18 257.18 323 250 323H19C11.8203 323 6 317.18 6 310V133.917C6 130.316 7.49363 126.877 10.1248 124.418L125.625 16.5037C130.621 11.8357 138.379 11.8357 143.375 16.5037Z" stroke="#4B65E0" stroke-width="12"/>
<mask id="path-2-inside-1_106_61" fill="white">
<path d="M85 217C85 206.507 93.5066 198 104 198H166C176.493 198 185 206.507 185 217V318H85V217Z"/>
</mask>
<path d="M73 217C73 199.879 86.8792 186 104 186H166C183.121 186 197 199.879 197 217H173C173 213.134 169.866 210 166 210H104C100.134 210 97 213.134 97 217H73ZM185 318H85H185ZM73 318V217C73 199.879 86.8792 186 104 186V210C100.134 210 97 213.134 97 217V318H73ZM166 186C183.121 186 197 199.879 197 217V318H173V217C173 213.134 169.866 210 166 210V186Z" fill="#4B65E0" mask="url(#path-2-inside-1_106_61)"/>
</svg>
