<svg width="1072" height="376" viewBox="0 0 1072 376" fill="none" xmlns="http://www.w3.org/2000/svg">
<g filter="url(#filter0_d_109_52)">
<path d="M176.373 208.662C113.633 266.494 86.3385 306.929 54.2842 296.737C22.0929 261.813 84.4683 193.211 147.208 135.379C209.949 77.5467 249.295 52.3849 281.486 87.3082C291.403 134.009 245.779 144.686 176.373 208.662Z" fill="#FF7A00"/>
<path d="M94.9362 187.489L93.9013 208.355L88.3971 194.854L94.9362 187.489Z" fill="black"/>
<path d="M139.994 243.79L132.832 239.914L147.638 236.252L139.994 243.79Z" fill="black"/>
<path d="M182.806 104.2L182.728 111.448L179.212 107.254L182.806 104.2Z" fill="black"/>
<path d="M36.2043 319.394L38.7195 315.861C103.9 224.322 188.069 147.927 285.477 91.8951V91.8951" stroke="black" stroke-width="3"/>
</g>
<g filter="url(#filter1_d_109_52)">
<path d="M250.256 188.909H282.909L310.608 256.452H311.886L339.585 188.909H372.238V298H346.563V230.99H345.658L319.45 297.308H303.044L276.837 230.617H275.931V298H250.256V188.909ZM418.567 299.172C412.53 299.172 407.044 297.609 402.107 294.484C397.171 291.359 393.23 286.672 390.282 280.422C387.335 274.172 385.861 266.413 385.861 257.144C385.861 247.521 387.388 239.602 390.442 233.387C393.496 227.173 397.491 222.574 402.427 219.591C407.399 216.608 412.743 215.116 418.46 215.116C422.757 215.116 426.433 215.862 429.487 217.354C432.541 218.81 435.062 220.692 437.051 223C439.039 225.308 440.548 227.705 441.578 230.191H442.111V188.909H468.159V298H442.377V284.737H441.578C440.477 287.258 438.915 289.619 436.891 291.821C434.867 294.023 432.328 295.798 429.274 297.148C426.255 298.497 422.686 299.172 418.567 299.172ZM427.622 278.877C430.783 278.877 433.482 277.989 435.719 276.214C437.956 274.403 439.678 271.864 440.886 268.597C442.093 265.33 442.697 261.494 442.697 257.091C442.697 252.616 442.093 248.763 440.886 245.532C439.714 242.3 437.992 239.815 435.719 238.075C433.482 236.335 430.783 235.464 427.622 235.464C424.391 235.464 421.656 236.352 419.419 238.128C417.182 239.903 415.477 242.407 414.306 245.638C413.169 248.87 412.601 252.687 412.601 257.091C412.601 261.494 413.187 265.33 414.359 268.597C415.531 271.864 417.218 274.403 419.419 276.214C421.656 277.989 424.391 278.877 427.622 278.877ZM554.265 298V317.07H481.449V298H554.265Z" fill="white"/>
<path d="M562.415 298V188.909H588.782V276.587H634.165V298H562.415ZM647.815 298V216.182H673.863V298H647.815ZM660.865 206.647C657.208 206.647 654.065 205.44 651.437 203.025C648.809 200.575 647.495 197.627 647.495 194.183C647.495 190.773 648.809 187.862 651.437 185.447C654.065 182.996 657.208 181.771 660.865 181.771C664.559 181.771 667.701 182.996 670.294 185.447C672.922 187.862 674.235 190.773 674.235 194.183C674.235 197.627 672.922 200.575 670.294 203.025C667.701 205.44 664.559 206.647 660.865 206.647ZM728.581 330.386C720.804 330.386 714.146 329.303 708.606 327.137C703.066 324.971 698.716 322.006 695.556 318.241C692.395 314.477 690.495 310.216 689.856 305.457L714.519 304.072C714.98 305.741 715.833 307.197 717.075 308.44C718.354 309.683 720.005 310.642 722.029 311.317C724.089 311.991 726.504 312.329 729.274 312.329C733.642 312.329 737.246 311.263 740.087 309.133C742.963 307.038 744.401 303.362 744.401 298.107V283.724H743.496C742.466 286.246 740.904 288.501 738.808 290.489C736.713 292.478 734.103 294.04 730.978 295.177C727.889 296.313 724.338 296.881 720.325 296.881C714.359 296.881 708.89 295.496 703.919 292.727C698.982 289.921 695.023 285.589 692.04 279.729C689.093 273.835 687.619 266.253 687.619 256.984C687.619 247.432 689.146 239.566 692.2 233.387C695.254 227.173 699.249 222.574 704.185 219.591C709.156 216.608 714.501 215.116 720.218 215.116C724.515 215.116 728.191 215.862 731.244 217.354C734.334 218.81 736.873 220.692 738.862 223C740.85 225.308 742.36 227.705 743.389 230.191H744.135V216.182H770.076V298.32C770.076 305.244 768.336 311.086 764.856 315.844C761.376 320.603 756.511 324.207 750.261 326.658C744.011 329.143 736.784 330.386 728.581 330.386ZM729.38 277.918C732.541 277.918 735.24 277.084 737.477 275.415C739.714 273.746 741.436 271.349 742.644 268.224C743.851 265.099 744.455 261.352 744.455 256.984C744.455 252.545 743.851 248.728 742.644 245.532C741.472 242.3 739.749 239.815 737.477 238.075C735.24 236.335 732.541 235.464 729.38 235.464C726.149 235.464 723.414 236.352 721.177 238.128C718.94 239.903 717.235 242.407 716.063 245.638C714.927 248.835 714.359 252.616 714.359 256.984C714.359 261.352 714.945 265.099 716.117 268.224C717.289 271.349 718.975 273.746 721.177 275.415C723.414 277.084 726.149 277.918 729.38 277.918ZM812.73 251.338V298H786.682V188.909H811.877V231.203H812.783C814.63 226.161 817.648 222.219 821.838 219.378C826.064 216.537 831.231 215.116 837.339 215.116C843.092 215.116 848.099 216.395 852.36 218.952C856.622 221.473 859.924 225.042 862.268 229.658C864.647 234.275 865.819 239.673 865.784 245.852V298H839.736V250.965C839.772 246.42 838.635 242.869 836.327 240.312C834.019 237.755 830.77 236.477 826.579 236.477C823.845 236.477 821.43 237.08 819.335 238.288C817.275 239.46 815.659 241.146 814.488 243.348C813.351 245.55 812.765 248.213 812.73 251.338ZM928.226 216.182V235.358H876.61V216.182H928.226ZM887.423 196.58H913.471V272.272C913.471 273.87 913.72 275.166 914.217 276.161C914.749 277.119 915.513 277.812 916.507 278.238C917.502 278.629 918.691 278.824 920.076 278.824C921.07 278.824 922.118 278.735 923.219 278.558C924.355 278.344 925.208 278.167 925.776 278.025L929.718 296.828C928.475 297.183 926.717 297.627 924.444 298.16C922.207 298.692 919.526 299.03 916.401 299.172C910.293 299.456 905.055 298.746 900.687 297.041C896.355 295.301 893.034 292.602 890.726 288.945C888.453 285.287 887.352 280.688 887.423 275.148V196.58Z" fill="#FF7A00"/>
</g>
<defs>
<filter id="filter0_d_109_52" x="-4" y="0" width="318.08" height="383.35" filterUnits="userSpaceOnUse" color-interpolation-filters="sRGB">
<feFlood flood-opacity="0" result="BackgroundImageFix"/>
<feColorMatrix in="SourceAlpha" type="matrix" values="0 0 0 0 0 0 0 0 0 0 0 0 0 0 0 0 0 0 127 0" result="hardAlpha"/>
<feOffset dy="4"/>
<feGaussianBlur stdDeviation="2"/>
<feComposite in2="hardAlpha" operator="out"/>
<feColorMatrix type="matrix" values="0 0 0 0 0 0 0 0 0 0 0 0 0 0 0 0 0 0 0.25 0"/>
<feBlend mode="normal" in2="BackgroundImageFix" result="effect1_dropShadow_109_52"/>
<feBlend mode="normal" in="SourceGraphic" in2="effect1_dropShadow_109_52" result="shape"/>
</filter>
<filter id="filter1_d_109_52" x="246.256" y="181.771" width="687.461" height="156.615" filterUnits="userSpaceOnUse" color-interpolation-filters="sRGB">
<feFlood flood-opacity="0" result="BackgroundImageFix"/>
<feColorMatrix in="SourceAlpha" type="matrix" values="0 0 0 0 0 0 0 0 0 0 0 0 0 0 0 0 0 0 127 0" result="hardAlpha"/>
<feOffset dy="4"/>
<feGaussianBlur stdDeviation="2"/>
<feComposite in2="hardAlpha" operator="out"/>
<feColorMatrix type="matrix" values="0 0 0 0 0 0 0 0 0 0 0 0 0 0 0 0 0 0 0.25 0"/>
<feBlend mode="normal" in2="BackgroundImageFix" result="effect1_dropShadow_109_52"/>
<feBlend mode="normal" in="SourceGraphic" in2="effect1_dropShadow_109_52" result="shape"/>
</filter>
</defs>
</svg>
