<svg width="223" height="324" viewBox="0 0 223 324" fill="none" xmlns="http://www.w3.org/2000/svg">
<path d="M138.014 175.072C95.7486 249.196 81.9905 296.001 48.3546 296.001C7.09423 272.475 45.7486 188.196 88.0142 114.072C130.28 39.9468 160.151 4.0451 201.412 27.5716C225.014 69.0716 184.77 93.0716 138.014 175.072Z" fill="#FF7A00"/>
<path d="M53.9904 179.572L59.327 199.77L49.9905 188.572L53.9904 179.572Z" fill="black"/>
<path d="M113.99 219.572L105.991 218.048L118.99 210.072L113.99 219.572Z" fill="black"/>
<path d="M112.49 73.5716L114.612 80.5028L109.99 77.5716L112.49 73.5716Z" fill="black"/>
<path d="M37.9905 323.072L39.3171 318.943C73.6942 211.956 130.756 113.648 206.605 30.7335V30.7335" stroke="black" stroke-width="3"/>
</svg>
