<svg width="200" height="200" viewBox="0 0 200 200" fill="none" xmlns="http://www.w3.org/2000/svg">
<circle cx="100" cy="100" r="100" fill="#B593BB"/>
<mask id="path-2-inside-1_110_15" fill="white">
<path d="M50 133C50 116.431 63.4315 103 80 103H120C136.569 103 150 116.431 150 133V166H50V133Z"/>
</mask>
<path d="M45 133C45 113.67 60.67 98 80 98H120C139.33 98 155 113.67 155 133H145C145 119.193 133.807 108 120 108H80C66.1929 108 55 119.193 55 133H45ZM150 166H50H150ZM45 166V133C45 113.67 60.67 98 80 98V108C66.1929 108 55 119.193 55 133V166H45ZM120 98C139.33 98 155 113.67 155 133V166H145V133C145 119.193 133.807 108 120 108V98Z" fill="black" mask="url(#path-2-inside-1_110_15)"/>
<circle cx="100" cy="65" r="32.5" stroke="black" stroke-width="5"/>
</svg>
